<?xml version="1.0" standalone="no"?>
<!DOCTYPE svg PUBLIC "-//W3C//DTD SVG 20010904//EN"
 "http://www.w3.org/TR/2001/REC-SVG-20010904/DTD/svg10.dtd">
<svg version="1.0" xmlns="http://www.w3.org/2000/svg"
 width="128.000000pt" height="128.000000pt" viewBox="0 0 128.000000 128.000000"
 preserveAspectRatio="xMidYMid meet">

<g transform="translate(0.000000,128.000000) scale(0.100000,-0.100000)"
fill="#C9D1D9" stroke="none">
<path d="M91 1226 c-51 -28 -50 -24 -51 -583 0 -384 3 -529 12 -548 25 -55 23
-55 588 -55 565 0 563 0 588 55 9 19 12 164 12 546 0 564 0 562 -55 587 -40
18 -1061 16 -1094 -2z m1089 -46 c16 -16 20 -33 20 -80 l0 -60 -560 0 -560 0
0 60 c0 108 -43 100 560 100 507 0 521 -1 540 -20z m20 -373 l0 -194 -37 -30
c-47 -37 -63 -33 -63 18 0 59 -26 79 -100 79 -74 0 -100 -20 -100 -79 0 -50
-16 -56 -58 -20 -18 16 -42 29 -54 29 -27 0 -118 -91 -118 -118 0 -12 13 -36
29 -54 36 -42 30 -58 -20 -58 -59 0 -79 -26 -79 -100 0 -74 20 -100 79 -100
51 0 55 -16 18 -62 l-30 -38 -274 0 c-260 0 -274 1 -293 20 -19 19 -20 33 -20
460 l0 440 560 0 560 0 0 -193z m-142 -220 c3 -40 7 -49 32 -62 40 -21 50 -19
82 12 l28 27 0 -222 c0 -209 -1 -223 -20 -242 -19 -19 -33 -20 -242 -20 l-222
0 27 28 c31 32 33 42 12 82 -13 25 -22 29 -62 32 l-48 3 0 55 0 55 48 3 c40 3
49 7 62 32 21 41 19 50 -17 87 l-32 33 42 42 42 42 33 -32 c37 -36 46 -38 87
-17 26 14 30 21 30 59 0 23 3 46 7 50 4 4 30 6 58 4 l50 -3 3 -48z"/>
<path d="M140 1160 c-11 -11 -20 -29 -20 -40 0 -26 34 -60 60 -60 26 0 60 34
60 60 0 11 -9 29 -20 40 -11 11 -29 20 -40 20 -11 0 -29 -9 -40 -20z m56 -31
c10 -17 -13 -36 -27 -22 -12 12 -4 33 11 33 5 0 12 -5 16 -11z"/>
<path d="M280 1160 c-11 -11 -20 -29 -20 -40 0 -26 34 -60 60 -60 26 0 60 34
60 60 0 11 -9 29 -20 40 -11 11 -29 20 -40 20 -11 0 -29 -9 -40 -20z m56 -31
c10 -17 -13 -36 -27 -22 -12 12 -4 33 11 33 5 0 12 -5 16 -11z"/>
<path d="M420 1160 c-11 -11 -20 -29 -20 -40 0 -26 34 -60 60 -60 26 0 60 34
60 60 0 11 -9 29 -20 40 -11 11 -29 20 -40 20 -11 0 -29 -9 -40 -20z m56 -31
c10 -17 -13 -36 -27 -22 -12 12 -4 33 11 33 5 0 12 -5 16 -11z"/>
<path d="M184 895 c-24 -24 -25 -29 -22 -137 2 -93 6 -113 18 -113 11 0 16 14
18 58 l3 57 39 0 39 0 3 -57 c2 -44 7 -58 18 -58 12 0 16 20 18 113 3 108 2
113 -22 137 -16 16 -36 25 -56 25 -20 0 -40 -9 -56 -25z m84 -27 c7 -7 12 -25
12 -40 0 -26 -3 -28 -40 -28 -37 0 -40 2 -40 28 0 31 16 52 40 52 9 0 21 -5
28 -12z"/>
<path d="M364 907 c-2 -7 -3 -69 -2 -138 3 -102 6 -124 18 -124 11 0 16 14 18
58 l3 57 39 0 c53 0 80 27 80 80 0 59 -26 80 -95 80 -37 0 -57 -4 -61 -13z
m111 -67 c0 -33 -2 -35 -37 -38 l-38 -3 0 41 0 41 38 -3 c35 -3 37 -5 37 -38z"/>
<path d="M565 908 c-3 -8 -4 -70 -3 -139 3 -102 6 -124 18 -124 13 0 15 22 15
134 0 99 -3 135 -12 138 -7 3 -15 -2 -18 -9z"/>
<path d="M165 549 c-16 -25 19 -29 221 -27 178 3 209 5 209 18 0 13 -31 15
-212 18 -147 2 -214 -1 -218 -9z"/>
<path d="M165 429 c-16 -25 19 -29 221 -27 178 3 209 5 209 18 0 13 -31 15
-212 18 -147 2 -214 -1 -218 -9z"/>
<path d="M165 309 c-16 -25 18 -29 191 -27 151 3 179 5 179 18 0 13 -28 15
-182 18 -125 2 -184 -1 -188 -9z"/>
<path d="M935 426 c-101 -44 -125 -178 -46 -257 61 -61 151 -65 216 -8 134
118 -6 337 -170 265z m149 -65 c26 -27 31 -39 31 -81 0 -43 -5 -54 -33 -82
-28 -28 -39 -33 -82 -33 -43 0 -54 5 -82 33 -28 28 -33 39 -33 81 0 52 25 92
70 112 37 16 96 3 129 -30z"/>
</g>
</svg>
