<?xml version="1.0" standalone="no"?>
<!DOCTYPE svg PUBLIC "-//W3C//DTD SVG 20010904//EN"
 "http://www.w3.org/TR/2001/REC-SVG-20010904/DTD/svg10.dtd">
<svg version="1.0" xmlns="http://www.w3.org/2000/svg"
 width="128.000000pt" height="128.000000pt" viewBox="0 0 128.000000 128.000000"
 preserveAspectRatio="xMidYMid meet">

<g transform="translate(0.000000,128.000000) scale(0.100000,-0.100000)"
fill="#C9D1D9" stroke="none">
<path d="M10 1101 l0 -141 85 0 c145 0 247 -56 310 -171 27 -49 30 -62 30
-149 0 -87 -3 -100 -30 -149 -63 -115 -165 -171 -310 -171 l-85 0 0 -141 0
-141 118 4 c183 8 297 56 419 179 73 73 135 184 158 280 70 299 -102 609 -395
710 -48 16 -96 23 -182 27 l-118 4 0 -141z"/>
<path d="M499 1212 c79 -62 158 -144 191 -196 l35 -56 105 0 c115 0 143 -10
161 -57 14 -37 -6 -90 -41 -108 -17 -9 -56 -15 -92 -15 l-63 0 0 -140 0 -140
68 0 c81 0 104 -10 123 -56 12 -29 12 -39 0 -68 -8 -19 -23 -39 -34 -45 -12
-6 -67 -11 -125 -11 l-103 0 -23 -40 c-30 -53 -111 -141 -172 -186 -27 -19
-49 -40 -49 -45 0 -7 95 -9 258 -7 255 3 257 3 314 30 76 35 148 104 184 175
27 53 29 67 29 163 0 99 -2 108 -33 169 l-33 64 32 61 c29 53 34 73 37 151 3
75 0 100 -18 148 -29 76 -112 167 -188 204 l-57 28 -270 2 -270 3 34 -28z"/>
</g>
</svg>
