<?xml version="1.0" standalone="no"?>
<!DOCTYPE svg PUBLIC "-//W3C//DTD SVG 20010904//EN"
 "http://www.w3.org/TR/2001/REC-SVG-20010904/DTD/svg10.dtd">
<svg version="1.0" xmlns="http://www.w3.org/2000/svg"
 width="512.000000pt" height="512.000000pt" viewBox="0 0 512.000000 512.000000"
 preserveAspectRatio="xMidYMid meet">

<g transform="translate(0.000000,512.000000) scale(0.100000,-0.100000)"
fill="#000000" stroke="none">
<path d="M632 4303 c-43 -21 -82 -88 -82 -141 0 -74 84 -141 161 -130 34 5 31
9 178 -237 42 -71 83 -140 91 -151 12 -20 10 -26 -28 -69 -44 -50 -72 -122
-72 -184 0 -33 -9 -45 -91 -121 -121 -111 -189 -195 -243 -299 -79 -155 -80
-161 -81 -471 l-1 -275 -36 -75 c-64 -133 -77 -259 -33 -326 13 -20 9 -26 -49
-83 l-62 -61 -48 16 c-87 30 -184 -5 -219 -79 -26 -54 -22 -141 8 -193 42 -72
139 -103 218 -70 72 29 125 127 114 208 -5 38 -5 38 68 83 l72 45 57 -34 c132
-79 250 -72 369 22 l38 31 47 -20 c71 -31 165 -50 255 -52 71 -2 88 1 124 22
54 31 76 74 62 123 -10 37 -31 59 -135 139 -119 91 -242 276 -279 419 -25 95
-21 199 9 265 64 140 276 291 575 410 219 87 437 98 573 29 144 -73 189 -188
208 -522 7 -140 12 -170 32 -210 32 -64 63 -75 125 -42 39 20 51 35 76 88 33
72 52 193 43 285 -6 56 -5 59 29 88 45 40 77 124 79 211 0 38 4 68 7 68 4 0
33 19 65 43 59 42 59 42 99 28 123 -43 210 125 111 216 -28 26 -44 33 -77 33
-22 0 -54 -8 -70 -17 -31 -18 -59 -67 -59 -102 0 -16 -16 -29 -70 -55 -68 -33
-70 -34 -92 -16 -36 28 -101 58 -141 65 -33 6 -44 17 -86 79 -143 211 -318
329 -565 382 -91 19 -311 20 -398 1 -53 -11 -69 -12 -80 -2 -35 33 -194 55
-261 37 l-37 -10 -82 101 c-45 56 -118 145 -163 197 -80 93 -81 96 -69 125 32
74 5 156 -60 186 -50 23 -81 23 -124 2z"/>
<path d="M1748 2431 l-33 -29 -3 -584 c-2 -561 -1 -584 17 -614 38 -63 133
-69 187 -13 l29 30 6 267 c5 285 11 315 62 370 71 77 218 82 255 9 32 -62 35
-92 41 -370 l6 -289 28 -23 c61 -53 154 -36 189 35 16 31 18 68 18 311 0 273
-8 367 -36 421 -25 49 -76 99 -128 126 -45 24 -62 27 -151 27 -114 0 -162 -17
-240 -81 l-45 -36 0 186 c0 209 -8 244 -59 270 -49 26 -105 21 -143 -13z"/>
<path d="M4933 2430 c-41 -24 -53 -48 -53 -103 0 -56 27 -92 81 -108 105 -32
189 61 149 165 -22 59 -116 84 -177 46z"/>
<path d="M3115 2114 c-75 -7 -150 -26 -206 -55 -170 -85 -201 -299 -43 -299
47 0 54 5 103 77 54 79 89 97 190 101 56 2 94 -2 110 -10 41 -22 65 -63 65
-115 1 -55 25 -44 -244 -104 -241 -54 -293 -81 -343 -174 -30 -56 -30 -174 0
-230 94 -175 345 -203 558 -63 l60 40 15 -24 c8 -13 32 -41 52 -63 33 -36 41
-40 83 -39 33 1 52 7 71 25 42 39 45 59 22 146 -16 63 -21 125 -27 328 -8 275
-13 299 -74 363 -39 41 -86 66 -152 80 -57 12 -181 20 -240 16z m214 -646
c-23 -88 -136 -156 -242 -145 -42 4 -56 10 -84 41 -52 56 -42 134 20 168 12 6
87 28 167 47 l145 36 3 -52 c2 -29 -2 -72 -9 -95z"/>
<path d="M3818 2081 l-33 -29 -3 -554 c-2 -304 0 -573 3 -597 9 -63 41 -91
102 -91 29 0 58 7 72 16 44 31 51 69 51 275 l0 192 46 -43 c73 -67 143 -94
244 -94 110 0 179 27 255 96 104 95 153 243 142 427 -13 216 -110 359 -281
412 -130 41 -254 14 -355 -77 l-49 -44 -6 41 c-15 95 -118 133 -188 70z m477
-162 c55 -15 118 -82 141 -150 24 -72 24 -196 0 -268 -66 -194 -286 -213 -378
-33 -67 132 -36 341 63 414 27 20 94 47 119 48 8 0 33 -5 55 -11z"/>
<path d="M4943 2100 c-13 -5 -32 -24 -43 -42 -19 -32 -20 -50 -20 -421 0 -435
1 -441 67 -472 61 -29 133 -2 159 60 11 28 14 109 14 411 0 414 -2 429 -61
459 -31 17 -82 18 -116 5z"/>
</g>
</svg>
