<?xml version="1.0" standalone="no"?>
<!DOCTYPE svg PUBLIC "-//W3C//DTD SVG 20010904//EN"
 "http://www.w3.org/TR/2001/REC-SVG-20010904/DTD/svg10.dtd">
<svg version="1.0" xmlns="http://www.w3.org/2000/svg"
 width="980.000000pt" height="840.000000pt" viewBox="0 0 980.000000 840.000000"
 preserveAspectRatio="xMidYMid meet">

<g transform="translate(0.000000,840.000000) scale(0.100000,-0.100000)"
fill="#C9D1D9" stroke="none">
<path d="M4905 8384 c-269 -41 -576 -154 -3020 -1107 -1732 -676 -1714 -668
-1806 -747 -83 -70 -79 -42 -79 -624 0 -411 3 -523 13 -549 19 -44 110 -125
204 -180 172 -101 474 -233 1618 -709 1889 -786 2126 -885 2415 -1016 297
-134 473 -173 684 -151 206 21 340 68 726 254 380 183 610 285 1980 875 1689
727 1899 826 2067 974 97 87 93 57 93 645 0 425 -2 517 -14 540 -40 77 -165
148 -436 251 -237 89 -788 304 -1885 735 -1208 474 -1449 568 -1712 666 -398
148 -597 182 -848 143z m-151 -654 c159 -62 294 -113 300 -113 7 0 152 45 323
101 171 56 313 102 316 102 3 0 -33 -90 -79 -199 -46 -110 -84 -204 -84 -209
0 -5 144 -63 320 -128 267 -99 315 -120 292 -126 -15 -4 -187 -24 -382 -43
-195 -20 -371 -38 -391 -41 l-36 -5 -93 -225 c-74 -179 -96 -223 -105 -212 -7
7 -76 120 -154 250 -132 220 -144 238 -174 243 -18 3 -212 21 -432 40 -220 19
-424 38 -454 41 l-55 7 35 13 c29 11 562 204 656 238 l32 11 -60 110 c-33 61
-82 152 -110 202 l-50 93 48 -19 c26 -10 178 -69 337 -131z m3114 -965 c359
-142 649 -262 645 -266 -19 -18 -1460 -580 -1478 -576 -36 6 -1325 520 -1320
525 15 16 1463 582 1480 579 11 -2 314 -120 673 -262z m-4548 110 c481 -75
790 -248 790 -439 0 -284 -657 -506 -1376 -466 -197 12 -331 31 -492 71 -278
69 -478 182 -537 305 -26 53 -24 128 3 180 85 165 416 306 842 359 157 19 623
14 770 -10z m2450 -940 c0 -4 -665 -983 -674 -992 -2 -2 -137 53 -302 121
-842 348 -1247 517 -1261 524 -10 6 22 15 98 26 63 10 560 86 1104 171 978
151 1035 160 1035 150z"/>
<path d="M9783 4808 c-22 -49 -77 -100 -182 -170 -196 -129 -496 -266 -1966
-898 -1260 -542 -1642 -711 -2035 -900 -367 -177 -540 -230 -758 -230 -194 0
-332 37 -618 166 -269 121 -754 325 -1969 829 -993 412 -1555 650 -1791 757
-248 114 -401 216 -444 297 -19 36 -19 35 -20 -457 0 -392 3 -499 13 -525 19
-44 110 -125 204 -180 193 -113 497 -244 2378 -1025 885 -367 1308 -546 1575
-664 316 -141 397 -167 574 -187 238 -27 475 36 877 235 315 156 626 294 1744
776 1759 758 2002 868 2203 992 117 73 206 157 221 211 17 58 11 1010 -6 973z"/>
<path d="M9792 3207 c-4 -32 -104 -127 -196 -188 -184 -121 -435 -235 -2081
-944 -1216 -523 -1632 -708 -1920 -852 -448 -225 -716 -275 -1030 -193 -97 26
-164 52 -365 143 -196 88 -565 245 -1165 494 -2399 997 -2619 1091 -2802 1199
-107 63 -198 142 -219 189 -11 25 -13 -47 -14 -469 l0 -499 24 -42 c29 -48 83
-95 181 -155 175 -108 452 -228 2440 -1053 940 -390 1346 -562 1585 -670 330
-149 517 -188 745 -156 180 25 335 80 625 221 369 180 700 327 1945 863 1534
661 1786 774 1991 897 121 71 216 153 245 209 18 37 19 58 16 531 -1 271 -3
485 -5 475z"/>
</g>
</svg>
