<?xml version="1.0" standalone="no"?>
<!DOCTYPE svg PUBLIC "-//W3C//DTD SVG 20010904//EN"
 "http://www.w3.org/TR/2001/REC-SVG-20010904/DTD/svg10.dtd">
<svg version="1.0" xmlns="http://www.w3.org/2000/svg"
 width="160.000000pt" height="160.000000pt" viewBox="0 0 160.000000 160.000000"
 preserveAspectRatio="xMidYMid meet">

<g transform="translate(0.000000,160.000000) scale(0.100000,-0.100000)"
fill="#000000" stroke="none">
<path d="M319 1309 c-26 -26 -23 -34 58 -170 36 -60 64 -111 62 -112 -2 -2
-26 -16 -53 -31 -68 -40 -188 -157 -241 -236 -58 -87 -101 -196 -120 -305 -19
-110 -19 -135 1 -163 l15 -22 764 0 c706 0 765 1 781 17 14 14 16 30 11 103
-16 243 -154 468 -374 608 l-52 33 70 115 c38 63 69 123 69 133 0 10 -9 26
-20 36 -34 31 -63 13 -110 -67 -24 -40 -58 -96 -76 -124 l-32 -52 -69 20 c-97
29 -289 29 -390 1 l-72 -20 -57 96 c-99 168 -120 185 -165 140z m633 -314
c199 -42 381 -184 472 -369 37 -76 66 -174 66 -225 l0 -31 -680 0 c-584 0
-681 2 -686 14 -10 25 34 178 73 254 43 86 147 203 229 257 151 101 346 137
526 100z"/>
<path d="M416 714 c-20 -20 -21 -97 -2 -113 8 -7 37 -11 68 -9 l53 3 3 53 c2
31 -2 60 -9 68 -16 19 -93 18 -113 -2z"/>
<path d="M1086 714 c-20 -20 -21 -97 -2 -113 8 -7 37 -11 68 -9 l53 3 3 53 c2
31 -2 60 -9 68 -16 19 -93 18 -113 -2z"/>
</g>
</svg>
