<?xml version="1.0" standalone="no"?>
<!DOCTYPE svg PUBLIC "-//W3C//DTD SVG 20010904//EN"
 "http://www.w3.org/TR/2001/REC-SVG-20010904/DTD/svg10.dtd">
<svg version="1.0" xmlns="http://www.w3.org/2000/svg"
 width="160.000000pt" height="160.000000pt" viewBox="0 0 160.000000 160.000000"
 preserveAspectRatio="xMidYMid meet">

<g transform="translate(0.000000,160.000000) scale(0.100000,-0.100000)"
fill="#000000" stroke="none">
<path d="M313 1246 c-97 -24 -191 -103 -241 -201 -26 -52 -72 -215 -72 -254 0
-36 13 -98 42 -196 17 -57 30 -79 76 -127 138 -145 354 -170 519 -60 51 34 76
64 108 134 31 65 33 108 6 108 -24 0 -34 -13 -57 -75 -75 -200 -363 -250 -520
-90 -61 61 -91 132 -100 235 l-7 70 362 0 362 0 -7 68 c-6 74 -28 161 -51 206
-23 44 -92 115 -140 143 -85 50 -180 63 -280 39z m203 -67 c72 -27 123 -73
161 -146 33 -63 58 -154 49 -178 -5 -13 -51 -15 -325 -15 -183 0 -322 4 -325
9 -10 15 15 112 41 164 74 148 251 221 399 166z"/>
<path d="M865 1231 c-3 -5 -1 -12 5 -16 5 -3 60 -72 122 -152 62 -80 130 -167
150 -193 l37 -47 -170 -226 c-93 -124 -169 -228 -169 -231 0 -11 56 -6 73 7
10 6 39 42 65 79 55 77 223 311 230 318 6 7 38 -35 159 -205 134 -187 151
-205 197 -205 20 0 36 2 36 5 0 3 -69 95 -152 205 -190 249 -189 249 -177 272
5 10 44 59 85 109 42 50 105 132 141 181 70 97 73 121 12 95 -24 -10 -61 -49
-124 -132 -49 -64 -108 -142 -131 -171 l-41 -54 -66 84 c-36 46 -93 125 -127
176 -60 88 -86 110 -130 110 -10 0 -21 -4 -25 -9z"/>
</g>
</svg>
