<?xml version="1.0" standalone="no"?>
<!DOCTYPE svg PUBLIC "-//W3C//DTD SVG 20010904//EN"
 "http://www.w3.org/TR/2001/REC-SVG-20010904/DTD/svg10.dtd">
<svg version="1.0" xmlns="http://www.w3.org/2000/svg"
 width="128.000000pt" height="128.000000pt" viewBox="0 0 128.000000 128.000000"
 preserveAspectRatio="xMidYMid meet">

<g transform="translate(0.000000,128.000000) scale(0.100000,-0.100000)"
fill="#C9D1D9" stroke="none">
<path d="M63 1264 c-64 -32 -63 -25 -63 -624 0 -602 -1 -593 65 -624 48 -23
1096 -24 1151 -1 65 27 64 21 64 625 0 604 1 598 -64 625 -55 23 -1107 22
-1153 -1z m1135 -176 l3 -108 -561 0 -560 0 0 103 c0 57 3 107 7 110 3 4 254
6 557 5 l551 -3 3 -107z m0 -595 l-3 -408 -555 0 -555 0 -3 408 -2 407 560 0
560 0 -2 -407z"/>
<path d="M159 1108 c-10 -18 -8 -24 11 -40 38 -31 130 -17 130 20 0 30 -21 42
-77 42 -44 0 -54 -4 -64 -22z"/>
<path d="M392 1118 c-49 -49 62 -95 118 -50 19 16 21 22 11 40 -10 18 -20 22
-64 22 -29 0 -58 -5 -65 -12z"/>
<path d="M609 1108 c-10 -18 -8 -24 11 -40 38 -31 130 -17 130 20 0 30 -21 42
-77 42 -44 0 -54 -4 -64 -22z"/>
<path d="M687 743 c-16 -29 -158 -476 -155 -490 2 -12 12 -18 32 -18 29 0 29
0 108 235 43 129 77 244 76 255 -3 20 -51 35 -61 18z"/>
<path d="M317 592 c-48 -48 -87 -94 -87 -102 0 -9 41 -56 90 -105 76 -76 93
-88 108 -79 34 22 25 45 -44 115 l-68 69 67 68 c37 37 67 74 67 83 0 17 -19
39 -35 39 -6 0 -50 -39 -98 -88z"/>
<path d="M842 668 c-22 -22 -12 -42 55 -110 l67 -68 -68 -69 c-69 -70 -78 -93
-44 -115 15 -9 32 3 108 79 49 49 90 97 90 105 0 17 -169 190 -186 190 -5 0
-15 -5 -22 -12z"/>
</g>
</svg>
