<?xml version="1.0" standalone="no"?>
<!DOCTYPE svg PUBLIC "-//W3C//DTD SVG 20010904//EN"
 "http://www.w3.org/TR/2001/REC-SVG-20010904/DTD/svg10.dtd">
<svg version="1.0" xmlns="http://www.w3.org/2000/svg"
 width="160.000000pt" height="160.000000pt" viewBox="0 0 160.000000 160.000000"
 preserveAspectRatio="xMidYMid meet">

<g transform="translate(0.000000,160.000000) scale(0.100000,-0.100000)"
fill="#C9D1D9" stroke="none">
<path d="M1081 1504 l-62 -78 -212 -1 c-220 -2 -276 -10 -415 -56 -44 -15 -78
-35 -109 -65 l-46 -43 7 -53 c17 -128 59 -447 97 -738 26 -202 46 -323 56
-338 37 -59 232 -112 408 -112 168 0 328 39 389 94 l36 31 70 545 c39 300 68
555 65 567 -3 12 -21 36 -40 54 -23 22 -40 51 -50 86 -17 58 -93 176 -116 181
-9 1 -42 -31 -78 -74z m133 -28 c69 -118 74 -295 10 -325 -28 -12 -29 -6 -9
42 33 81 8 212 -58 298 -20 27 -24 38 -15 47 15 15 39 -5 72 -62z m-60 -33
c14 -21 28 -50 31 -64 6 -25 5 -26 -91 -47 -53 -12 -99 -21 -101 -19 -5 6 120
167 129 167 4 0 19 -17 32 -37z m-190 -71 c2 -4 -48 -70 -111 -146 l-115 -139
-76 7 c-178 16 -341 71 -364 122 -10 20 -8 28 12 49 42 45 146 82 299 104 66
10 349 12 355 3z m236 -110 c0 -48 -28 -117 -48 -117 -14 0 -155 116 -148 122
6 6 154 41 179 42 14 1 17 -8 17 -47z m115 -12 c7 -22 -10 -60 -26 -60 -6 0
-8 7 -5 16 3 9 6 27 6 40 0 29 16 32 25 4z m-281 -75 c33 -30 57 -57 54 -60
-2 -3 -32 -8 -66 -11 l-62 -7 0 67 c0 36 3 66 8 66 4 -1 34 -25 66 -55z m-122
-77 c-5 -5 -32 -8 -61 -6 l-51 3 58 64 57 65 3 -58 c2 -33 -1 -63 -6 -68z
m-538 8 c58 -23 165 -48 268 -61 34 -4 49 -11 53 -25 15 -49 172 -105 270 -98
94 8 207 75 254 152 18 29 75 66 85 55 3 -4 -107 -868 -119 -936 -8 -43 -46
-69 -142 -95 -103 -28 -352 -30 -456 -5 -68 17 -141 49 -152 66 -3 6 -32 216
-65 468 -33 252 -61 468 -63 481 -5 27 -7 27 67 -2z m769 -76 c-68 -63 -131
-84 -227 -78 -66 4 -159 38 -190 68 -21 20 28 22 67 2 123 -60 226 -50 323 31
28 24 64 38 74 29 3 -2 -19 -26 -47 -52z m-73 20 c0 -10 -63 -30 -98 -30 -15
0 -22 5 -20 13 4 10 29 16 106 25 6 1 12 -2 12 -8z m-160 -20 c0 -5 -9 -10
-19 -10 -11 0 -23 5 -26 10 -4 6 5 10 19 10 14 0 26 -4 26 -10z"/>
<path d="M985 682 c-75 -25 -106 -102 -70 -172 40 -78 160 -78 200 0 28 54 12
129 -34 157 -24 15 -73 22 -96 15z m101 -43 c29 -27 38 -63 24 -104 -14 -41
-48 -65 -95 -65 -88 0 -134 98 -76 164 36 41 106 44 147 5z"/>
<path d="M971 561 c-13 -24 8 -55 34 -50 28 6 42 34 26 53 -18 22 -48 20 -60
-3z m49 -1 c0 -5 -4 -10 -10 -10 -5 0 -10 5 -10 10 0 6 5 10 10 10 6 0 10 -4
10 -10z"/>
<path d="M562 634 c-95 -66 -49 -214 67 -214 106 0 152 130 71 203 -35 32
-101 37 -138 11z m135 -26 c75 -70 1 -195 -100 -167 -45 12 -67 42 -67 92 0
50 14 75 53 93 39 17 84 10 114 -18z"/>
<path d="M594 539 c-21 -24 -10 -52 24 -57 32 -5 49 34 26 59 -22 24 -27 24
-50 -2z m46 -9 c0 -5 -7 -10 -16 -10 -8 0 -12 5 -9 10 3 6 10 10 16 10 5 0 9
-4 9 -10z"/>
<path d="M805 443 c-4 -12 1 -24 14 -35 22 -17 28 -38 10 -38 -16 0 -51 20
-76 43 -19 16 -23 17 -23 5 0 -8 18 -27 39 -41 27 -18 41 -35 43 -53 7 -59 64
-56 82 3 5 18 19 36 35 43 14 7 21 15 14 17 -7 2 -21 0 -32 -6 -28 -15 -51
-14 -51 4 0 8 6 15 13 15 23 0 37 21 26 42 -13 25 -84 26 -94 1z m75 -102 c0
-23 -14 -41 -31 -41 -14 0 -19 7 -19 25 0 20 5 25 25 25 14 0 25 -4 25 -9z"/>
</g>
</svg>
