<?xml version="1.0" standalone="no"?>
<!DOCTYPE svg PUBLIC "-//W3C//DTD SVG 20010904//EN"
 "http://www.w3.org/TR/2001/REC-SVG-20010904/DTD/svg10.dtd">
<svg version="1.0" xmlns="http://www.w3.org/2000/svg"
 width="128.000000pt" height="128.000000pt" viewBox="0 0 128.000000 128.000000"
 preserveAspectRatio="xMidYMid meet">

<g transform="translate(0.000000,128.000000) scale(0.100000,-0.100000)"
fill="#000000" stroke="none">
<path d="M62 1230 c-61 -37 -62 -48 -62 -472 0 -352 1 -386 18 -418 29 -55 71
-71 177 -68 82 3 90 5 90 23 0 18 -7 20 -70 22 -171 6 -165 -4 -165 313 l0
240 545 0 545 0 0 -130 c0 -119 -2 -130 -18 -130 -10 0 -23 -5 -28 -10 -16
-16 -41 -2 -63 36 -19 32 -23 34 -76 34 -54 0 -56 -1 -70 -34 -16 -38 -38 -50
-65 -36 -32 17 -55 11 -88 -23 -33 -34 -42 -73 -21 -94 13 -13 -5 -53 -24 -53
-26 0 -41 -20 -46 -62 l-6 -43 -80 -3 c-80 -3 -104 -14 -83 -39 7 -9 43 -13
119 -13 100 0 109 -2 120 -21 8 -15 8 -24 0 -32 -23 -23 -12 -64 24 -96 39
-34 47 -36 75 -21 27 14 70 2 70 -20 0 -48 100 -70 140 -30 11 11 20 26 20 34
0 21 29 28 65 14 28 -10 37 -9 59 5 14 10 33 29 43 43 14 22 15 31 5 59 -14
36 -7 65 14 65 8 0 23 9 34 20 41 41 18 140 -32 140 -21 0 -31 43 -17 74 10
20 9 30 -5 50 -14 22 -16 63 -16 307 0 312 -4 333 -64 370 -29 18 -59 19 -531
19 -484 0 -501 -1 -533 -20z m1033 -36 c33 -13 45 -59 45 -169 l0 -105 -546 0
-546 0 4 121 c3 113 5 122 27 140 22 18 46 19 511 19 269 0 496 -3 505 -6z
m-105 -599 c0 -16 7 -28 18 -31 9 -3 32 -12 51 -20 30 -13 35 -13 52 2 18 16
20 16 39 -1 18 -16 19 -20 5 -35 -19 -21 -19 -28 5 -84 17 -37 26 -46 45 -46
21 0 25 -5 25 -29 0 -25 -5 -30 -27 -33 -21 -2 -31 -12 -46 -51 -18 -44 -19
-49 -3 -66 15 -17 15 -19 -4 -36 -17 -15 -24 -16 -43 -6 -19 10 -31 9 -70 -8
-38 -17 -47 -25 -47 -46 0 -21 -5 -25 -30 -25 -25 0 -30 4 -30 25 0 19 -9 28
-46 45 -56 24 -63 24 -84 5 -15 -14 -19 -13 -35 5 -17 19 -17 21 -1 39 15 17
15 22 2 52 -8 19 -17 42 -20 52 -3 10 -15 17 -31 17 -21 0 -25 5 -25 29 0 23
5 30 22 33 16 2 30 18 46 52 22 46 22 49 6 67 -16 18 -16 20 1 39 16 17 19 18
40 4 21 -14 27 -13 71 8 34 16 50 30 52 46 3 17 10 22 33 22 24 0 29 -4 29
-25z"/>
<path d="M175 1115 c-32 -31 -32 -75 -1 -111 62 -73 179 5 134 89 -28 53 -92
64 -133 22z m89 -48 c9 -15 7 -21 -9 -33 -22 -16 -34 -14 -49 8 -7 12 -6 21 4
33 16 19 39 16 54 -8z"/>
<path d="M395 1115 c-35 -34 -33 -78 5 -117 26 -25 36 -29 63 -24 40 8 65 32
73 72 4 24 0 37 -21 62 -34 41 -84 44 -120 7z m84 -39 c23 -28 -17 -68 -45
-45 -15 12 -19 41 -7 52 11 12 40 8 52 -7z"/>
<path d="M696 1119 c-51 -40 -28 -128 38 -145 13 -3 81 -4 150 -2 110 3 128 6
146 23 34 34 36 77 5 113 l-27 32 -143 0 c-129 0 -145 -2 -169 -21z m302 -41
c16 -16 15 -23 -4 -42 -12 -13 -39 -16 -129 -16 -62 0 -120 3 -129 6 -16 6
-22 45 -9 57 12 13 258 8 271 -5z"/>
<path d="M913 499 c-68 -20 -123 -110 -107 -176 9 -39 49 -90 86 -109 41 -21
116 -14 155 14 63 45 82 141 40 202 -39 59 -112 87 -174 69z m125 -84 c81 -93
-62 -223 -149 -136 -42 42 -43 100 -2 143 42 44 108 41 151 -7z"/>
<path d="M386 712 c-11 -18 -56 -224 -50 -233 3 -5 13 -9 24 -9 15 0 23 19 44
113 14 61 26 118 26 125 0 13 -36 17 -44 4z"/>
<path d="M181 651 c-23 -27 -41 -52 -41 -56 0 -11 72 -95 91 -105 11 -7 20 -5
28 4 8 10 3 23 -23 56 l-34 43 34 45 c18 24 31 48 28 53 -13 21 -45 6 -83 -40z"/>
<path d="M500 684 c0 -9 14 -32 30 -51 17 -18 30 -37 30 -41 0 -5 -13 -21 -30
-37 -32 -31 -39 -59 -15 -68 15 -6 105 86 105 108 0 7 -18 33 -41 59 -41 46
-79 61 -79 30z"/>
<path d="M354 309 c-8 -14 21 -43 35 -35 6 4 11 16 11 27 0 21 -34 27 -46 8z"/>
</g>
</svg>
