<?xml version="1.0" standalone="no"?>
<!DOCTYPE svg PUBLIC "-//W3C//DTD SVG 20010904//EN"
 "http://www.w3.org/TR/2001/REC-SVG-20010904/DTD/svg10.dtd">
<svg version="1.0" xmlns="http://www.w3.org/2000/svg"
 width="128.000000pt" height="128.000000pt" viewBox="0 0 128.000000 128.000000"
 preserveAspectRatio="xMidYMid meet">

<g transform="translate(0.000000,128.000000) scale(0.100000,-0.100000)"
fill="#C9D1D9" stroke="none">
<path d="M568 1260 c-48 -26 -90 -78 -125 -156 l-28 -63 -80 6 c-178 13 -284
-67 -260 -195 8 -42 47 -123 82 -169 27 -35 27 -34 -23 -100 -45 -59 -77 -148
-71 -200 11 -97 84 -144 225 -144 49 0 95 3 104 6 11 5 24 -12 50 -67 42 -88
78 -132 129 -158 48 -25 90 -25 138 0 51 26 87 70 129 158 26 55 39 72 50 67
9 -3 55 -6 104 -6 141 0 214 47 225 144 6 52 -26 141 -71 200 -50 66 -50 65
-23 100 35 46 74 127 82 169 24 128 -82 208 -260 195 l-80 -6 -28 63 c-67 150
-169 209 -269 156z m139 -92 c38 -40 88 -137 77 -148 -5 -4 -39 -18 -76 -30
l-68 -24 -67 24 c-38 12 -72 26 -76 30 -13 11 29 95 68 139 49 54 96 57 142 9z
m-321 -230 c-4 -18 -10 -54 -13 -81 -5 -44 -11 -51 -71 -99 l-65 -52 -24 30
c-52 65 -75 141 -57 189 11 29 64 44 153 45 l84 0 -7 -32z m693 21 c17 -6 36
-19 41 -29 24 -45 2 -126 -53 -194 l-24 -30 -65 52 c-60 48 -66 55 -71 99 -3
27 -9 63 -13 81 l-6 32 79 0 c44 0 94 -5 112 -11z m-561 -25 c12 -4 22 -9 22
-13 0 -7 -82 -53 -87 -48 -2 2 0 18 3 35 7 33 18 37 62 26z m306 -26 c3 -17 5
-33 3 -35 -5 -5 -87 41 -87 49 0 8 25 15 56 17 16 1 23 -6 28 -31z m-121 -59
c34 -18 81 -45 105 -61 l42 -29 0 -115 0 -114 -52 -34 c-29 -18 -76 -45 -105
-60 l-51 -27 -54 27 c-29 15 -77 42 -105 60 l-53 34 0 114 0 115 32 23 c28 19
167 97 176 98 1 0 31 -14 65 -31z m-347 -203 c0 -59 1 -58 -49 -17 -16 14 -16
16 10 43 15 15 30 28 33 28 4 0 7 -24 6 -54z m607 26 c26 -27 26 -29 10 -43
-50 -41 -49 -42 -50 16 -1 30 2 55 6 55 4 0 19 -13 34 -28z m-660 -136 c58
-52 59 -54 72 -132 8 -43 12 -81 9 -84 -3 -3 -45 -5 -94 -5 -74 0 -93 3 -117
21 -53 39 -39 124 35 222 13 17 27 32 31 32 3 -1 32 -25 64 -54z m769 22 c74
-98 88 -183 35 -222 -24 -18 -43 -21 -117 -21 -49 0 -91 2 -94 5 -3 3 1 41 9
84 13 78 14 80 72 132 32 29 61 53 64 54 4 0 18 -15 31 -32z m-572 -160 c22
-13 40 -26 40 -29 0 -6 -72 -30 -76 -26 -6 6 -15 77 -10 77 4 0 25 -10 46 -22z
m325 -15 c-4 -21 -8 -39 -9 -40 -4 -4 -76 20 -76 26 0 7 71 50 84 51 4 0 5
-17 1 -37z m-107 -89 c39 -15 72 -31 72 -36 0 -22 -53 -115 -83 -145 -62 -65
-132 -35 -191 83 -14 29 -26 56 -26 62 0 8 120 59 145 61 6 1 43 -11 83 -25z"/>
<path d="M601 747 c-69 -24 -98 -116 -54 -175 39 -53 134 -60 177 -13 80 89
-10 227 -123 188z"/>
</g>
</svg>
