<?xml version="1.0" standalone="no"?>
<!DOCTYPE svg PUBLIC "-//W3C//DTD SVG 20010904//EN"
 "http://www.w3.org/TR/2001/REC-SVG-20010904/DTD/svg10.dtd">
<svg version="1.0" xmlns="http://www.w3.org/2000/svg"
 width="400.000000pt" height="400.000000pt" viewBox="0 0 400.000000 400.000000"
 preserveAspectRatio="xMidYMid meet">

<g transform="translate(0.000000,400.000000) scale(0.100000,-0.100000)"
fill="#C9D1D9" stroke="none">
<path d="M1783 3590 c-156 -41 -281 -111 -405 -229 -183 -173 -297 -406 -350
-715 -27 -159 -22 -427 12 -581 32 -150 96 -333 165 -473 62 -125 62 -126 48
-161 -22 -51 -12 -139 22 -196 98 -168 339 -156 421 20 72 154 -35 330 -204
337 l-52 2 -44 86 c-132 257 -188 540 -166 834 29 380 198 687 443 806 159 77
340 100 469 60 233 -72 427 -343 482 -674 l12 -70 105 -33 c57 -18 105 -33
107 -33 7 0 0 85 -12 155 -46 259 -138 458 -285 616 -120 130 -259 215 -412
253 -91 22 -263 21 -356 -4z"/>
<path d="M1695 2635 c-51 -18 -127 -99 -143 -152 -28 -93 -8 -168 63 -238 77
-78 166 -95 260 -51 48 22 115 85 115 108 0 18 288 3 402 -21 378 -81 739
-307 912 -573 214 -328 206 -629 -24 -858 -55 -55 -95 -85 -150 -112 -176 -86
-404 -89 -638 -9 -45 16 -85 25 -88 20 -3 -5 -46 -41 -96 -79 l-90 -70 53 -24
c80 -35 205 -73 305 -92 68 -12 124 -15 234 -11 166 5 256 26 386 86 215 101
361 251 428 441 26 74 30 102 34 222 5 152 -8 231 -59 372 -110 303 -432 619
-789 776 -224 98 -464 149 -697 150 l-112 0 -53 53 c-75 75 -159 95 -253 62z"/>
<path d="M748 2081 c-210 -176 -348 -401 -389 -638 -15 -85 -6 -311 15 -388
25 -93 99 -234 156 -298 131 -146 328 -239 565 -267 168 -20 377 10 604 86
383 128 703 393 896 744 37 67 56 92 75 96 134 35 216 171 180 299 -16 56 -81
132 -135 156 -49 23 -139 25 -188 4 -139 -58 -190 -235 -104 -358 24 -34 20
-44 -57 -162 -144 -218 -357 -397 -641 -536 -249 -122 -518 -155 -755 -94
-103 27 -192 79 -264 155 -109 116 -166 260 -166 420 0 198 92 385 273 556
l85 81 -27 106 c-14 59 -29 107 -33 107 -4 0 -44 -31 -90 -69z"/>
</g>
</svg>
