<?xml version="1.0" standalone="no"?>
<!DOCTYPE svg PUBLIC "-//W3C//DTD SVG 20010904//EN"
 "http://www.w3.org/TR/2001/REC-SVG-20010904/DTD/svg10.dtd">
<svg version="1.0" xmlns="http://www.w3.org/2000/svg"
 width="128.000000pt" height="128.000000pt" viewBox="0 0 128.000000 128.000000"
 preserveAspectRatio="xMidYMid meet">

<g transform="translate(0.000000,128.000000) scale(0.100000,-0.100000)"
fill="#000000" stroke="none">
<path d="M92 1188 c-17 -17 -17 -1079 0 -1096 17 -17 1079 -17 1096 0 17 17
17 1079 0 1096 -17 17 -1079 17 -1096 0z m398 -73 c0 -2 -17 -38 -37 -80 l-37
-75 -128 0 -128 0 0 80 0 80 165 0 c91 0 165 -2 165 -5z m160 0 c0 -2 -17 -38
-37 -80 -35 -71 -39 -75 -70 -75 -18 0 -33 2 -33 5 0 2 17 38 37 80 35 71 39
75 70 75 18 0 33 -2 33 -5z m470 -75 l0 -80 -225 0 c-124 0 -225 2 -225 5 0 2
17 38 37 80 l37 75 188 0 188 0 0 -80z m0 -520 c0 -345 -1 -360 -19 -360 -15
0 -19 10 -24 46 -7 65 -46 103 -118 114 -30 4 -47 8 -38 9 8 0 28 15 45 32 24
25 29 39 29 79 0 43 -5 54 -33 82 -28 28 -39 33 -82 33 -43 0 -54 -5 -82 -33
-28 -28 -33 -39 -33 -82 0 -40 5 -54 29 -79 17 -17 37 -32 45 -32 9 -1 -8 -5
-38 -9 -72 -11 -111 -49 -118 -114 l-6 -46 -258 0 -259 0 0 360 0 360 480 0
480 0 0 -360z m-210 -55 c26 -32 -13 -81 -47 -59 -23 14 -28 41 -13 59 16 19
44 19 60 0z m78 -237 c7 -7 12 -25 12 -40 l0 -28 -120 0 -120 0 0 28 c0 15 5
33 12 40 16 16 200 16 216 0z"/>
<path d="M210 1065 c-26 -32 13 -81 48 -59 34 22 22 74 -18 74 -10 0 -23 -7
-30 -15z"/>
<path d="M330 1065 c-26 -32 13 -81 48 -59 34 22 22 74 -18 74 -10 0 -23 -7
-30 -15z"/>
<path d="M732 787 c-29 -29 -52 -59 -52 -68 0 -19 101 -119 121 -119 19 0 39
20 39 39 0 8 -14 30 -32 48 l-32 33 32 33 c34 35 39 56 20 75 -22 22 -43 13
-96 -41z"/>
<path d="M932 828 c-19 -19 -14 -40 20 -75 l32 -33 -32 -33 c-18 -18 -32 -40
-32 -48 0 -20 20 -39 40 -39 20 0 120 101 120 121 0 19 -101 119 -121 119 -8
0 -20 -5 -27 -12z"/>
<path d="M315 732 c-122 -74 -134 -92 -89 -129 l29 -24 -27 -20 c-16 -11 -28
-29 -28 -39 0 -10 12 -28 28 -39 l27 -20 -29 -24 c-18 -14 -27 -30 -25 -42 4
-21 211 -155 239 -155 28 0 235 134 239 155 2 12 -7 28 -25 42 l-29 24 28 20
c15 11 27 29 27 39 0 10 -12 28 -27 39 l-28 20 29 24 c18 14 27 30 25 42 -4
21 -211 155 -239 155 -8 0 -64 -31 -125 -68z m181 -53 c30 -17 54 -34 54 -39
0 -5 -25 -23 -55 -40 l-55 -31 -55 31 c-30 17 -55 35 -55 40 0 7 97 69 109 70
2 0 28 -14 57 -31z m-105 -176 l49 -28 49 28 c53 29 61 32 61 18 0 -5 -25 -24
-55 -41 l-55 -31 -55 31 c-30 17 -55 36 -55 41 0 14 8 11 61 -18z m0 -120 l49
-28 49 28 c53 29 61 32 61 18 0 -5 -25 -24 -55 -41 l-55 -31 -55 31 c-30 17
-55 36 -55 41 0 14 8 11 61 -18z"/>
</g>
</svg>
