<?xml version="1.0" standalone="no"?>
<!DOCTYPE svg PUBLIC "-//W3C//DTD SVG 20010904//EN"
 "http://www.w3.org/TR/2001/REC-SVG-20010904/DTD/svg10.dtd">
<svg version="1.0" xmlns="http://www.w3.org/2000/svg"
 width="500.000000pt" height="500.000000pt" viewBox="0 0 500.000000 500.000000"
 preserveAspectRatio="xMidYMid meet">

<g transform="translate(0.000000,500.000000) scale(0.100000,-0.100000)"
fill="#000000" stroke="none">
<path d="M2460 4958 c-1 -71 -33 -125 -128 -213 -141 -130 -250 -244 -333
-347 -400 -501 -619 -1142 -619 -1819 0 -105 6 -233 14 -295 63 -474 285 -934
640 -1324 90 -99 253 -251 319 -298 29 -21 41 -40 56 -88 31 -96 51 -227 59
-379 l7 -140 65 -22 c36 -13 68 -23 73 -23 4 0 4 75 1 168 -8 218 5 345 46
427 23 48 45 72 105 119 316 246 593 648 735 1066 143 421 160 942 45 1385
-103 398 -301 804 -540 1109 -35 45 -121 143 -192 219 -70 76 -147 164 -170
195 -40 54 -153 270 -153 292 0 5 -7 10 -15 10 -11 0 -15 -11 -15 -42z"/>
</g>
</svg>
