<?xml version="1.0" standalone="no"?>
<!DOCTYPE svg PUBLIC "-//W3C//DTD SVG 20010904//EN"
 "http://www.w3.org/TR/2001/REC-SVG-20010904/DTD/svg10.dtd">
<svg version="1.0" xmlns="http://www.w3.org/2000/svg"
 width="517.000000pt" height="535.000000pt" viewBox="0 0 517.000000 535.000000"
 preserveAspectRatio="xMidYMid meet">

<g transform="translate(0.000000,535.000000) scale(0.100000,-0.100000)"
fill="#000000" stroke="none">
<path d="M3585 5344 c-179 -26 -257 -40 -355 -65 l-115 -29 -105 17 c-79 14
-159 18 -325 17 -207 0 -226 -2 -320 -28 -101 -28 -241 -87 -296 -127 l-31
-22 -117 37 c-141 44 -328 88 -476 112 -155 26 -486 26 -605 1 -251 -53 -415
-139 -557 -291 -129 -139 -218 -350 -259 -611 -18 -119 -21 -403 -4 -526 42
-307 173 -871 285 -1223 203 -639 414 -1005 642 -1118 59 -29 77 -33 143 -33
135 1 214 56 408 284 128 151 332 376 341 376 3 0 43 -15 89 -33 45 -18 109
-35 142 -39 33 -3 60 -9 60 -13 0 -15 -124 -141 -153 -157 -17 -9 -100 -33
-183 -54 -223 -55 -283 -93 -291 -186 -13 -145 197 -253 494 -253 168 0 304
38 420 119 l70 48 7 -291 c14 -594 38 -765 132 -946 71 -138 179 -233 322
-283 88 -31 275 -28 402 6 115 31 223 74 297 119 123 74 230 230 272 398 29
118 94 554 131 884 10 92 21 170 24 173 6 6 25 6 162 -3 128 -8 255 5 411 42
228 53 479 227 513 355 9 33 8 47 -9 83 -35 80 -114 98 -276 62 -169 -36 -345
-42 -445 -15 -69 18 -69 17 12 150 269 442 471 914 593 1383 58 222 73 301 90
476 18 182 18 281 1 395 -25 155 -58 225 -167 342 -221 238 -487 383 -819 444
-88 16 -164 22 -320 24 -113 2 -218 1 -235 -1z m350 -164 c214 -20 368 -62
536 -146 132 -66 242 -148 348 -260 116 -123 137 -171 148 -349 31 -509 -270
-1415 -696 -2095 -7 -11 -13 -12 -21 -4 -7 7 0 32 25 88 85 184 101 347 65
676 -26 232 -24 347 10 565 27 176 26 322 -1 405 -136 416 -471 820 -852 1029
l-107 58 76 13 c177 28 315 34 469 20z m-975 -76 c110 -18 304 -80 405 -131
337 -168 630 -488 790 -863 l32 -75 -136 0 c-150 0 -212 -11 -307 -56 -81 -38
-164 -126 -194 -206 -72 -192 -7 -492 191 -883 158 -312 278 -532 320 -588 23
-31 53 -71 66 -89 l24 -32 -44 -19 c-66 -29 -121 -84 -151 -151 -21 -48 -28
-84 -36 -183 -23 -320 -105 -966 -150 -1185 -41 -199 -119 -308 -271 -381
-132 -63 -233 -87 -369 -87 -110 0 -118 1 -182 33 -78 38 -130 93 -181 190
-81 154 -97 307 -106 1012 l-6 535 -35 64 c-56 104 -175 180 -266 169 -19 -2
-34 -1 -34 4 0 16 95 269 135 358 47 105 88 228 112 335 21 97 28 347 14 476
-17 141 -58 349 -82 415 -24 62 -102 153 -163 189 -152 88 -422 67 -658 -52
l-68 -33 0 24 c0 46 41 262 71 376 17 63 53 166 80 229 218 500 611 698 1199
605z m-1682 1 c62 -3 161 -15 220 -26 102 -19 373 -87 381 -95 2 -2 -14 -23
-35 -46 -172 -187 -292 -448 -359 -783 -45 -222 -51 -341 -40 -685 4 -138 3
-254 -5 -325 -21 -204 -23 -393 -7 -471 31 -144 104 -285 207 -397 l53 -58
-35 -37 c-76 -82 -219 -243 -302 -342 -145 -172 -196 -212 -272 -212 -184 0
-408 368 -613 1005 -104 322 -207 746 -272 1117 -55 315 -27 649 73 886 102
240 293 389 583 455 53 12 243 27 285 23 14 -2 76 -6 138 -9z m2910 -1241 c26
-5 27 16 -9 -239 -26 -178 -28 -357 -5 -530 35 -270 29 -421 -22 -551 l-19
-47 -68 129 c-231 438 -254 486 -315 653 -55 150 -76 329 -49 424 15 57 71
112 137 138 78 29 264 42 350 23z m-1975 -35 c49 -13 106 -64 128 -114 25 -57
66 -278 80 -430 23 -256 -14 -452 -134 -721 -24 -54 -64 -156 -88 -226 -43
-126 -44 -128 -74 -128 -103 0 -257 74 -355 171 -110 110 -189 295 -190 445 0
29 7 116 16 195 11 102 14 218 12 397 l-3 254 25 18 c46 33 184 98 255 119
132 40 230 46 328 20z m2087 -1824 c91 -46 168 -58 335 -51 83 3 183 12 224
21 41 8 76 13 78 11 6 -6 -111 -83 -176 -116 -161 -81 -472 -119 -633 -79
l-38 10 0 55 c0 92 26 134 97 160 52 18 57 18 113 -11z m-1880 -10 c30 -16 61
-66 74 -118 14 -58 -69 -167 -185 -244 -98 -65 -278 -96 -429 -74 -92 14 -197
49 -183 61 4 4 51 18 103 30 250 58 300 84 403 208 135 162 150 172 217 137z"/>
<path d="M3885 3795 c-30 -8 -59 -24 -73 -40 -20 -24 -21 -29 -9 -49 61 -92
202 -84 250 15 20 42 9 65 -41 79 -47 13 -65 12 -127 -5z"/>
<path d="M2072 3760 c-34 -8 -72 -36 -72 -53 0 -54 95 -137 156 -137 69 0 144
54 144 105 0 56 -136 108 -228 85z"/>
</g>
</svg>
